<svg xmlns="http://www.w3.org/2000/svg" id="SvgjsSvg266767" width="4096" height="1602.930728959338" version="1.1" xmlns:xlink="http://www.w3.org/1999/xlink" xmlns:svgjs="http://svgjs.com/svgjs"><defs id="SvgjsDefs266768"></defs><g id="SvgjsG266769" transform="translate(328, 328) scale(34.4)" opacity="1"><defs id="SvgjsDefs59857"><linearGradient id="SvgjsLinearGradientZZMriRCo7" gradientUnits="userSpaceOnUse" x1="6.637494169711415" y1="73.10428300214325" x2="71.10427134156605" y2="8.637505830288601"><stop id="SvgjsStop59860" stop-color="#196a3e" offset="0.05"></stop><stop id="SvgjsStop59861" stop-color="#128343" offset="0.95"></stop></linearGradient></defs><g id="SvgjsG59858" transform="scale(0.213114305807028)" opacity="1"><g id="SvgjsG59862" class="jhSZcCyxj" transform="translate(-21.66962308799502, -3.939931470544534) scale(1.676566583210445)" light-content="false" non-strokable="true" fill="url(#SvgjsLinearGradientZZMriRCo7)"><path d="M38.2 2.35c.347.902-3.423 2.664-1.925 2.7-.088 1.876-.771.356-1.725-1.175.01 1.56-2.384.266-1.625 1.6-.66.881.73.933.2 2 1.8 1.782-.46 1.215-1.4.075-.314 1.415-.978.21-1.775.75-.148-1.341-1.267-2.994-1.7-.35-1.996.955 1.544 2.088 0 1.825-.526 2.403-1.648-2.926-1 .325-1.569-.947-1.137.558-.825.575.005.49-.033 2.32-.575 3.025 1.407.78-.783 2.318 1.325 2.8.878 1.744 1.319-.582 1.85.2-.584-.961 1.323-.742 1.15.15-1.636-.63-.239.139-.075 1.1 1.143 1.75-1.513.963-1.2 1.85.251-.522-1.673 2.87-.05 1.7.65 1.616-3.085-.051-1.625-1.575-.056-2.562-1.71.35-2.675-1.2-1.089-.215-1.226 2.376-2.25.075.58-3.378-2.72.794-2.45 1.025 3.256.375-1.995 1.819-.3 2.8-.788-.004-.673 1.258-.125 1.95-1.257.275-.086.947.05 1.15 1.174-.24-.166 2.57-.325 1.75-.138-2.013-1.239-.569-1.8-.55-.075 1.806-1.738.191-1.1 1.725.298-1.475 1.293.413.225.225.832.446-1.28.385-1.55 2.525-2.712-.038.94 4.97 1.35 4.25.938 2.514.111-1.79 1.575-.675.168-1.503.695 1.633.55 0 1.787.665-1.69 1.515.625 1.35-.741 1.465-.537 1.058-1.375 1.375-2.278 1.32 3.226 1.456 1.35 3.375.535 2.12-2.169 2.595-1.6-.075-1.176.739.8 2.682-.575 2.925.767-1.498-.643.381-.225.55-.549.236-1.441.712-1.225.2.48-3.102-1.09.82.025.6-2.148.969-2.168.829-2.475 3.25.615.548.397 1.06.4 1.625-.15.556.773 1.624 1.925.9.021-.648 2.474-.078.55.1 1.426.016.63 1.707 1 2.65.664-.202.667-.903.65-1.375.03.131-.321.44-.2-.025.122-.025.19-.019.2.025-.015-.417-.03-.654.425-.225.513-1.415.949 1.891 1 .025.901 1.163-.19-1.15.95.375-.492-1.402.257.145.375-.075-1.1.986-1.067.015-1.25 1-1.283 2.012 1.675.899 1.75 1.775-.357 2.257 1.785.384 1.4 1.85 1.545-.065.858-1.513 1.425-2.825-2.152 2.029 1.096-2.15-.775-.35.381-1.479.769.004 1.225-.975-1.056-.397.698.392.95-1 .187.54 1.812 1.364 1.85-.65 2.292.27.58 2.61 2.775 2.375.595 1.681-.682-.25-.575 1.25-2.066-.475-1.521.465-1.375 1.8.79.394 2.313.341.9 1.175 1.38 1.397 2.377-.96 4.375.15.43-.503.717-.752 1.125.825-1.674-1.206-.956.917-1.625 2.075l.3.8c.356-.101-.212-1.19.8-.6.842 2.002 1.488-1.128.575-.7-1.74-.686 1.922-2.304 1.075.475.843.385-.843.726-1.3 2.45 1.585-1.14.881-.08.925 1.45-.06.442-.213 1.117-.55 1.325.099.964.444 4.573.525 6.9.608.159 1.79.868.05.475-.016.04-.011.063-.025.1.006.646-.032 1.117-.125 1.175-.004.003.004.024 0 .025.203.335.631.343.15 1.175-.559.663-.09 2.705 0 3.125.642.283 1.867.28 2.28.043.62-1.643-.06-3 .025-4.325-.123-.644-.056-.989.125-1.15l.2-1.825c-.244-.514-.158-1.409.2-1.85l-.28-6.343c-.496-.274-.132-.933.2-1.675l.075-.8.25-.175c.095-.465.048-.91-.375-1.25 1.916-.524 1.95-.896 3.175-1.05-.367-1.197.907-.155 1.5-1.125.066.586 1.29.049 1.05-.925 1.662-.578 1.486-2.168 2.675-2.275 1.498-1.107-1.71-2.637-1.175-1.075-1.401-.38-.065 1.18-1.2.85 1.39 1.247-.809-.534-.05.675-.843-1.192-.062-1.329.45-1.825 1.522-.736-1.942-1.156-.1-1.25 2.256 1.167-.648-.59-.675-.4-1.46-.975-.047-.204-.95-1.45-1.157 1.84-.606-2.089.75-.5.392-1.037 1.036-.6 2.625-.55.651-.786 4.047-2.91 3.15-1.85 1.485 1.367 1.912.319 2.55-.425-.282-1.363 1.79-1.792 2.325-.225.441-1.516.665.836 0 0 .042.124.08.276.1.425-1.806-.369.278.788 1 .2-.65.96 1.06 2.641.95.85.211 1.294 1.736 1.752 1.575 0 .883 1.985.645-1.92-.025-.275-1.743-1.718 1.074-.14.925-1 1.076 1.08-.728.249.15 1.425.478-1.474 2.942.955 1.275.15.152 1.347 1.025.279 1.275.325.195-1.751 2.595-1.878 1.825-3.05-.239.906-.733.014-1.35-.875.875-.91 1.724-2.373 2.375-4.5 1.067-.748 1.488-1.408.9-2.7-1.194.226.43-.692-.275-1.225-1.281.266-.112-.917-.975-1.95-2.358 1.268-.629 2.768.5 4.25-2.068.25-.506-1.092-2-.775.646-1.47-1.84-2.262-2.05-.575.251 2.47-3.16.591-2.45 1.6-.553-.197-2.05 1.52-2.2.725-1.035 1.835-1.474.235.15-.25-.068-.184-.077-.291-.1-.4.076-.046.104-.182-.05-.175.001.04.013.118.025.175-.05.019-.111-.01-.125-.175.045-.015.07.001.1 0-.022-.673 1.403 1.054.95-.575 1.18 1.019 1.153-1.408 2.325-1.925-1.136-.293-.236-.336-.425-.9.791 1.473 2.672-1.854 1.325-1.7 1.12-.88 1.573-3.03-.425-3.15-2.926-.086 1.363-1.599-.5-2.675-2.567-.736 1.558-2.205.55-1.4-.994 2.556 2.19-1.257.15-.825 1.483-.593-.305-2.087-1.4-2.275-2.176-1.27-.598 1.593-2 1.125.347 2.45-1.425-2.057-2.05-.3-.253 1.733-.213 1.236-.725-.25-.116-.603-.981-1.297-1.7-.975-.178-1.74-1.058-2.394-2.325-1.4-.51.669-.786-.928-1.75-.025-.728-1.277.375.185-.2-1.425.859-.192 1.748.853 2.275-1.125-1.608.276.154-4.052-1.8-2.8.83-2.046-.95-2.723-1.125-4.125.772-1 .195-1.471.075-2.075-1.534 1.239.372-.94-.575-1.525-.893-1.35-.175 1.76-1.25.225.41.93-.716.572-.75.675-1.336-.881-.544.987-1.025.425.04.109-2.105 1.414-1.1-.3-.24.111.653-1.794-.525-1.925-.797-1.48-1.07-4.338-2.9-5.05zm-3.425 76.825c-.009-.004-.016.004-.025 0 .042.137.047.102.025 0zm-15.3-53.45c-.053.01-.11.026-.175.05.19.03.212.005.175-.05zm19.1-22.2c1.373.176-.468 2.154 0 0zM37.6 5.05c.48.015-.136.471 0 0zm1.925 1.25c.58.09-.445 1.175-.35.025a.894.894 0 0 1 .35-.025zm-5.375.775c1.432.045-.782 1.112 0 0zm1.775.075c1.074-.213.13 2.485-.575.275.243-.173.422-.245.575-.275zm3.575.4c.614.002-.138.658 0 0zm-5.55.275c1.378.19-.385.628 0 0zm2.925.625c.494-.095-.173.617 0 0zm-.15.425c.426.03.393.957-.2.05.08-.04.14-.054.2-.05zm1.35.25c.295-.015.584.98-.3.85.016-.621.166-.843.3-.85zm1.1.225c.82 1.656-.271.338 0 0zm-.575.55c.564-.047-.073.7 0 0zm-9.275.05c.907.099-.393 2.6-.2.025.081-.017.14-.032.2-.025zm10.8.475c.518-.029-.086.513 0 0zm4.3.05c.292.107-.538 1.248-.2.025.094-.037.158-.04.2-.025zM41 10.5c.309-.058.783 1.583-.175.375.033-.25.104-.362.175-.375zm-1.25.1c1.466.481.168 1.375 1.575 1.5-.3.122 1.403.877.65 1.575.187 2.332-.668-1.748-.925.175.341-1.505-2.273-1.912-1.3-3.25zm-2 .625c.682.764.494.893 0 0zm-7.875.625c.26 1.086-.246 1.044 0 0zm13.425 0c1.194.373-.328.679 0 0zm-13.375.825c.242.001-.212.422-.15.025a.49.49 0 0 1 .15-.025zm1.7.05c.87 1.358-1.056.81 0 0zm-1.15 1.075c.737-.146-.187.857-.425.15.18-.076.32-.13.425-.15zm15.45.175c.042.027.003.34-.25.85.086-.618.208-.877.25-.85zM33.1 14.05c.134-.014.133.458-.325.7.126-.501.245-.691.325-.7zm10.45.05c.251.027-.137.49-.15.025a.462.462 0 0 1 .15-.025zm-14.3.05c1.15.756.728 1.226 0 0zm14.725.05c.61.131-.467.404 0 0zm-1.425.025c.327.402-.64.328 0 0zm.975.55c.853-.092-.12.642 0 0zm1.75.175c.503.22-.64.407 0 0zm-.35.575c.38.49-.368.574 0 0zm-2.1.775c.473-.083-.083.473 0 0zm-12.075.225c.894.607.544.836 0 0zm13.2.5c.346.065-.164.79-.2.025a.48.48 0 0 1 .2-.025zm-13.425.1c.54.05-.327.54 0 0zm.65 0c.38.032.39.771-.475.275.197-.219.348-.286.475-.275zm13.075.175c.172.02.094.36-.375.55.563.807.202.911 0 0-.003-.004-.022.004-.025 0-.085.033-.164.08-.275.1.31-.515.552-.665.675-.65zm-14.1.425c.531.015-.14.52 0 0zm14.675.1c.388.289-.387.297 0 0zm-.65.175c.478.025-.134.462 0 0zm3.225.4c.177.515-.788.074 0 0zm-2.475.2c.47.019-.128.467 0 0zm1.5.55c1.505.031-.796 1.197 0 0zm.9.45c.472.2-.314.43 0 0zm-2.525.05c.41-.165-.434.96-.275.15.116-.086.216-.126.275-.15zm-15.125.425c1.604.3-.589 1.684 0 0zm-6.65.3c1.29.33.423 1.034 0 0zm21.05 0c.494-.095-.173.617 0 0zm-21.45.05c.443-.064-.021.819-.775.45.369-.318.627-.429.775-.45zm15.175.25c1.345.347-.926 1.436 0 0zm7.125.1c.37.28-.367.301 0 0zm-15.65.025c.564.007-.11.605 0 0zm12.5.5c.929 1.73-1.923 1.754 0 0zm1.075.05c.778.048-.03 1.79-.8.3.37-.23.62-.311.8-.3zm-4.725.525c.226.021-.103.444-.125.025.058-.017.093-.028.125-.025zm5.675.225c.47.019-.128.467 0 0zm6.125.15c.473-.083-.083.473 0 0zm-19.125.425c1.181-.03-.518.796 0 0zm-9.05.85c.832-.093 1.82 1.396-.65.75.107-.524.373-.72.65-.75zm27.925 0c2.02.152-.774 1.348 0 0zm8.025.125c2.122 1.241.144 1.247 0 0zm-37.25.175c.036.002.016.16-.2.65-.096-.203.14-.653.2-.65zm20.8.55c.742.055.955 2.32-.575 1.35.556.588-.608.917-.375-.3.344-.803.684-1.07.95-1.05zm11.125.3c.271.005-.163.594-.15.05.072-.027.111-.05.15-.05zm-12.5.2c.21-.094.608.663-.1.45-.019-.286.03-.419.1-.45zm2.65.125c.45-.143.135 1.067-.25.15a.71.71 0 0 1 .25-.15zm13.6.075c2.102.492-.119 2.155 0 0zm-11.95.625c.667-.024-.196.578 0 0zm8.7.1c.507-.148 1.042 1.237-.325.4.09-.243.208-.366.325-.4zm-.575.325c.541.06-.393.58 0 0zm-7.775.225c.813.15.443.64.125.725.224.202-.256 1.086-.675.25.208-.172.363-.25.475-.275-.112-.066-.14-.268.075-.7zm-.075.7c.052.03.127.045.2.025-.04-.036-.114-.045-.2-.025zm-20.05-.675c.346-.044.146 1.96-.325.425.143-.297.245-.415.325-.425zm25.525 0c.594-.084-.108.503 0 0zM24.9 26.5c.228.02-.112.446-.125.025.059-.017.092-.028.125-.025zm24.95.1c.121.028.056.239-.575.55.147-.423.454-.578.575-.55zm.425 0c.21.028-.262.48-.15.025a.488.488 0 0 1 .15-.025zm-10.95.075c1.84.784-.686.49 0 0zm11.275 0c1.346.114.757.694 0 0zm-.075.1c.033.027-.12.277-.55.7.297-.53.517-.727.55-.7zm2.775.075c-.418.966.425 1.813-.525 1.925-.302-.668-.026-1.48.525-1.925zm-16.5.3c.356-.128-.464.983-.225.125a.8.8 0 0 1 .225-.125zm11.3.05c.226.021-.128.444-.15.025a.498.498 0 0 1 .15-.025zm2.45 0c1.27.243-.496 1.14 0 0zm-9.9.2l.45.175.325.35c2.415 1.225-.936.792-.775-.525zm-12.85.175c.408.038-.37 1.11-.25.05a.53.53 0 0 1 .25-.05zm29.8.15c.636.045-.267.487 0 0zm-34.075.325c1.015-.02-.076.72 0 0zm15.3.1c.578.652.101 1.16 0 0zm-.725.275c.319.447-.67.103 0 0zm2.275 0c.293.034-.21.472-.175.025.078-.015.133-.03.175-.025zm5.375.35c.327-.017.085 1.112-.525.5.242-.37.416-.494.525-.5zm-5.4.075c1.468.456-.989 1.03 0 0zm6.075.2c1.011.17-.887 1.062 0 0zm-16 .025c.473-.083-.083.473 0 0zm3.025.125c.48.015-.136.471 0 0zm-9.975.025c.378-.001.116 1.438-.2.1.082-.071.146-.1.2-.1zm-6.375.125c.211.044-.198.439-.125.025.06-.01.095-.031.125-.025zm18.25 0c.222.025.15.922-.325.35.339.765-.419.523-.175-.3.076.123.134.208.175.3.13-.273.251-.358.325-.35zm5.4.05c1 .314-.623.805 0 0zm6.525.025c.817.154-.159.73 0 0zm.775 0c.561-.036-.099.696 0 0zm-4.075.1c.876.586-.773 1.26 0 0zm-3.8.025c.498.054-.401.524 0 0zm5.125 0c.278.053-.302.635-.175.025.08-.019.135-.033.175-.025zm-14.025.025c.594-.108-.152.603 0 0zm14.7 0c.354-.072.687.9-.075 1.125 1.36-.006-.365 1.106 0 0-.096.028-.192.05-.325.05.041-.834.219-1.138.4-1.175zm1.1.125c.251.027-.137.49-.15.025a.462.462 0 0 1 .15-.025zm-13.925.025c.272.397-.465.136 0 0zm17.5 0c.258-.014.246.28.15.45.757.2-.325.612-.775 1.1 2.113-.626-1.146 1.253-.175.2-1.157-.394 1.172-.753.75-1.2.084.045.151-.014.2-.1-.083-.022-.195-.059-.325-.075.01.019.015.06.025.075-.063-.037-.143-.062-.25-.1.098.007.147.015.225.025-.039-.072-.089-.148-.125-.275a.722.722 0 0 1 .3-.1zm-8.175.025c.218-.015.314.332.25.45 1.124.108-.741 1.673 0 0-.048.088-.201.034-.45-.375a.34.34 0 0 1 .2-.075zm2.175.225c2.049.287-.181 2.104-.325.6 1.48-.481-.59-.185.325-.6zm2.15.175c.594-.084-.108.503 0 0zm2.55.05c.463.145-.271.39 0 0zm-19.875.075c.442.074-.295.366 0 0zm17.65.1c.097.013.059.173-.275.475 1.19.396-.163.793 0 0-.111.1-.267.22-.45.35.215-.586.595-.842.725-.825zm-5.025.1c.708-.141-.526 2.28-.7.6.997.95.356-.485.025-.575l.5.05a.772.772 0 0 1 .175-.075zm-20.875.15c1.686.039-.643.957 0 0zm.9 0c2.26-.13-.68 1.048 0 0zM51.3 30.9c.54-.014-.063.515 0 0zm-7.65.025c.321.117-.424 1.247-.2.025.096-.034.154-.042.2-.025zm-.425.075c.384.35-.407.332 0 0zm5 .025c.224.013-.09.452-.125.025a.336.336 0 0 1 .125-.025zm-4.25.025c1.066.25-.235 2.25 0 0zm-22.225.025c1.3-.042 1.947.567 3.225.25-.37 1.395.966 1.173.6 1.85-1.903-.21.885 1.51-.75 1.6-2.102.761.914-2.197-.65-1.875.84-1.782-2.667.233-3.025-1.75.217-.037.414-.069.6-.075zm20.6.025c.53.015-.14.52 0 0zm-2.05.025c.332-.02.801 1.41-.175.3.045-.207.098-.295.175-.3zm8.2.075c.53.015-.14.52 0 0zm-31.525.225c.447.16-.316.559 0 0zm26.5.1c1.017-.133.037 1.204 0 0zm4.725 0c.8-.075.085.716 0 0zm-1.775.075c.807.281-1.118.886 0 0zm2.525.2c.355.01.375.183.275.3.438-.081.036 1.473-.425.5.094.495-1.085.434-.325-.425.13.114.228.21.275.3a1.63 1.63 0 0 1 .275-.275c-.114.024-.205-.06-.075-.4zm9.4.075c.238-.006.154.863-.35.375.142-.28.27-.373.35-.375zm-11.225.05c.915-.05-.048.671 0 0zm-4.575.025c.603.154.424.757.525 1.175-1.178-1.13-.423.395-.425.575-.037-.018-.145-.137-.35-.425-1.186.583.416-1.197.25-1.325zM42 32c.043-.02.017.064-.075.375-.096 2.637-2.251-1.107-.825.7.178.11.772-1.017.9-1.075zm1.425.125l.375.1c.818.454-.988 1.811-.375-.1zm.925.175c.463.145-.271.39 0 0zm3.6.225c.464.272-.536.385 0 0zm-27.675.2c1.39-.072 1.108 2.324 0 0zm14.45.25c.507.016-.24.542 0 0zm13.2.075c.227.022-.134.437-.15.025a.517.517 0 0 1 .15-.025zm-30.625.025c.966.906.407 1.193 0 0zm18.2 0c.143-.09.113.184-.375.6.13-.36.29-.546.375-.6zm20.675 0c.585.895.286 1 0 0zm-8.8.05c.251.027-.137.49-.15.025a.462.462 0 0 1 .15-.025zm8.225.05c.48.015-.136.471 0 0zm-8.7.075c.393.367-.64.268 0 0zm1.175 0c.197.059.207.667-.45.725.14-.598.332-.76.45-.725zm-13.2.075c.126-.062.313.176.175.9-.366-.475-.301-.838-.175-.9zm1.9.075c.376-.038-.07 1.694-.2.125.091-.093.146-.12.2-.125zm1.125 0c.885.537-.468 1.022 0 0zm-2.3.2c.253.044-.285.549-.15.025.073-.016.114-.031.15-.025zm10.025.175c.287-.123.435 1.81-.55 1.3l.25-.325c.085-.666.204-.934.3-.975zm6.225.05c.478.025-.134.462 0 0zm3.75.05c1.846.034.707 1.688-.4.025.15-.013.277-.027.4-.025zm-21.725.05c.6 0-.568 1.036-.375.075.167-.051.29-.075.375-.075zm21.025 0c.363-.076.612 1.245-.25.325.085-.21.166-.308.25-.325zM40.625 34c.227.022-.109.437-.125.025.058-.016.093-.028.125-.025zm-20.325.075c.283.043-.274.62-.175.025a.488.488 0 0 1 .175-.025zm37.1.25c.48.015-.136.471 0 0zm-2.85.025c.242.001-.212.422-.15.025a.49.49 0 0 1 .15-.025zm-23.1.05c.414 0-.334.884-.25.075.113-.043.19-.075.25-.075zm-.825.1c.29-.076.416.42.225.55.906.594 1.502 2.952.225 2.275 1.159-1.322-1.643-1.007-.85-2.375a.479.479 0 0 1 .175-.05c-.043-.03-.077-.034-.125-.075.129-.206.248-.299.35-.325zm.225.55c-.132-.087-.284-.153-.425-.15.217.147.344.206.425.15zm2.175-.55c.41.024.04.397-.675.125.33-.108.539-.133.675-.125zm.85 0c.7.004-.519.663-.425.05.188-.031.325-.05.425-.05zm10.65.175c.546.04-.374.593 0 0zm4.45 0c.326-.053 1.863.944.675.775-1.266.783-1.138-.16-.725-.675-.014-.057.003-.092.05-.1zm2.75 0c.473-.083-.083.473 0 0zm5.5.025c.37.28-.367.301 0 0zm-11.25.075c1.43-.067-.722.688 0 0zm-14.775.1c1.633.166.145.524 0 0zm27 .025c1.09-.057 1.014.235 0 0zm-7.5.125c.255.036-.146.61-.15.025a.352.352 0 0 1 .15-.025zm-8.275.025c.136-.017.26.035.375.225 2.07 1.527.077.718-1 .15.175-.116.399-.346.625-.375zm-8.85.025a.363.363 0 0 1 .15 0c.389.083 1.25.554 1.25.4 1.006-.048-2.038 1.887-1.15.075-.292-.328-.346-.451-.25-.475zm-17.45.025c.429.18-.277.406 0 0zm28.075.025c.211.044-.198.439-.125.025.06-.01.095-.031.125-.025zm-12.375.175c.228.02-.137.446-.15.025a.497.497 0 0 1 .15-.025zm7.025.025c.272.397-.465.136 0 0zm9.25.075c.251.027-.137.49-.15.025a.462.462 0 0 1 .15-.025zm-8.55.15c1.54.084-.65 1.081 0 0zm-3.85.075c1.473.258 2.14 5.622.2 1.7-.11-.705-.492 1.182-.9 1.975-1.788.56-.305-1.298-.725-1.925.1-2.022 2.387.26 1.425-1.75zm1.1.075c.503-.108-.084.594 0 0zm17.1.025c.39-.051-.098 1.438-.225.125a.459.459 0 0 1 .225-.125zm-2.675.175c1.453.072.117 1.101 0 0zm-1.725.075c.648-.099-.876 2.44-1.2.7l.375-.125c.423-.389.676-.552.825-.575zM34.8 36c.55-.082-.286.596 0 0zm13.525 0c.626.174-.457.534 0 0zm2.825.4c.682.52-.648.697 0 0zm3.15.125c.786.199-.271.51 0 0zm-20.925.05c.949.016-.038 2.185 0 0zm6 .025c1.9.063.595 1.23 0 0zm11.05.075c.365-.09.502.595.05.5 1.21.145.565 1.557-.3 0 .091-.004.173-.007.25 0a1.143 1.143 0 0 1-.35-.175c.13-.19.246-.3.35-.325zM32.35 36.8c1.247 1.465-.117 2.32-1.6.55 1.166 1.205 1.222-.476 1.6-.55zm19.15.1c1.482.141-.47 1.399 0 0zm-28.275.325c.473-.083-.083.473 0 0zm31.525 0c.348.312-.394.272 0 0zm-25.675.025c1.363.187 1.158.828 0 0zm-7.5.1c1.876 1.647-1.057 2.381 0 0zm2.125.05c1.494.11.469 1.19 0 0zm15 0c.211.044-.198.439-.125.025.06-.01.095-.031.125-.025zm2.075.125c.608-.019 1.59 1.598 2.15 1.925.172 1.974-1.27-1.424-2.175.875-.341-1.62-2.143.682-1.975-.175-.027-.859 4.622-1.487 1.55-1.95.089-.473.247-.669.45-.675zm1.975.075c1.036.192.396.764.025.75.054.007.038.166-.225.625-.17-.216.135-.636.225-.625-.21-.008-.332-.208-.025-.75zm12.725 0a.57.57 0 0 1 .175 0c.343.059.39.457-.75.425.179-.279.391-.398.575-.425zm-28.775.225c1.793.14.406.752 0 0zm3.525.125c.251.027-.137.49-.15.025a.462.462 0 0 1 .15-.025zm33.85.025c.678.393-.25 2.725 0 0zM39.3 38.15c.415.024.85.402-.35.125.071-.11.212-.133.35-.125zm9.5 0c.287 0-.17.5-.15.025.076-.025.109-.025.15-.025zm-21.95.05c.763 1.125-4.03.204-.875.3l.575-.25zm25.75.075c.473-.083-.083.473 0 0zm-13.8.125c.403.083-1.024 1.268-.3.05.144-.043.242-.062.3-.05zm22.275.075c.54-.014-.063.515 0 0zm-32.025.05c.457-.015.768.142 1.075.65 1.104-1.641 4.171 3.41 2.125 1.625-1.817-1.81-1.253 1.577-1.825 3.6 1.315-1.022 1.02.255 1.6.95-1.751-1.14.025 2.77-1.5 2.1-.148.06-.284.098-.4.125.46 1.423 1.387 2.013.025 2.575-1.337-.357-2.21-2.677-.55-1.6l.275-.5.2-.45c-1.525.302-.431-2.205-2.325-1.65-.726-.352-1.253-.592-2.425.15 1.711.32.293 2.82.25 1.075-1.828-1.64.225-3.3 0-4.725-1.389.566-1.516-2.721-3.45-1.375-.418 1.761-2.408-2.012-.275-1.725-.377-1.148 1.875 1.438.975-.675 1.69.123 4.53.507 5.225.025.4-.105.726-.166 1-.175zm1.025 9.075c.018-.004.031-.02.05-.025-.006-.019-.02-.03-.025-.05zm1.875-9.075c.614-.001-.28.535 0 0zm28.7.225c.87.826-.262.909 0 0zm.925 0c.362-.068-.51.79-.25.1.108-.055.198-.09.25-.1zm-29.325.05c1.608.759.53 1.743 0 0zm4.025 0l.45.025c1.683 1.462-.85 2.495-.45-.025zm6.75.225c.473-.083-.083.473 0 0zm4.95.15c.044-.017.081.15.075.675-.22-.122-.148-.647-.075-.675zm-12.55.15c.324.28-.49.197 0 0zm.275.025c.495.405-.011 1.327.775 1.475 1.907 1.204-.206.304.6 2.15-.842-1.458-.812-.348-1.375-.85-1.816-.218-.851-3.275-.55-1.15 2.41.678-.216.078.55-1.625zm15.025.2c.026.035-.159.214-.6.425.337-.352.574-.46.6-.425zm10.2.05c.388.289-.387.297 0 0zm-16.325.1a.35.35 0 0 1 .15 0c.578 1.694-.04.885-.8.725.294-.128.337-.652.65-.725zm.35 0c.813.645-.308.555 0 0zm-11.7.125c.513.37.004.997 0 0zm13.775.025c.24-.066.05.488-.125.075a.445.445 0 0 1 .125-.075zm-3.45.025c.96-.14-.063 1-.55.15a2.94 2.94 0 0 1 .55-.15zm7.45 0c1.399.735-1.191 3.592 0 0zm8.85.15c.374-.095-.12 1.507-.225.15a.496.496 0 0 1 .225-.15zm-11.45.025c.54.05-.327.54 0 0zm13.975.225c.54-.014-.063.515 0 0zM47 40.3c.441-.12.025 1.024-.25.15a.851.851 0 0 1 .25-.15zm1.85.025c.883.026-.05.51-.2.375.125.07-.142.416-.175.025.09-.03.144-.043.175-.025-.05-.045-.024-.149.2-.375zm-5.125.1c.296 0-.096.488-.175.025a.516.516 0 0 1 .175-.025zm6 .025c.533.027 1.072 1.14.225.85 1.625.66.116.409.375 1.8-1.247.934-1.227-1.026-2-.825-2.275.107 2.288-1.539.9-1.3.13-.4.306-.535.5-.525zm12.1.05c.216-.034.126.503-.325.275.133-.186.253-.264.325-.275zm-13.725.025c.227.022-.109.437-.125.025.058-.016.093-.028.125-.025zm12.725 0c.512.193-.232.48 0 0zm-14.175.05c1.21.93-.356 1.277 0 0zm-5.275.05c.227.022-.109.437-.125.025.058-.016.093-.028.125-.025zm4.4 0c.607-.008-.285.44 0 0zm16.575 0c.488.315-.638.445 0 0zm-22.65.1c.473-.083-.083.473 0 0zm5.775.05c.488.04-.153.454 0 0zm6.35.05c.463.145-.271.39 0 0zm8.05 0c1.181.385.978.788 0 0zm1.6.075c.636 1.391-1.227 1.02 0 0zM40 40.975c.409-.007.822 0 1.225.075 1.702 1.187-1.228.532-1.225-.075zM37.375 41c.211.044-.198.439-.125.025.06-.01.095-.031.125-.025zm20.9.225c.476.258-.351.283 0 0zm.375.075c.388.289-.387.297 0 0zm-11.5.025l.125.325v.325c-1.21 1.592-.722.316-.125-.65zm.225.1c.528-.057-.243.673 0 0zm-25.3.075c.215-.03-.031.466-.125.05a.369.369 0 0 1 .125-.05zm23.15 0c.478.025-.134.462 0 0zm17.1 0c.377-.022-.5 1.522-.25.1a.46.46 0 0 1 .25-.1zm-23.7.075c.507.016-.24.542 0 0zm15.175.2c.491-.167-.424 1.007-.3.175.135-.088.23-.151.3-.175zm6.875 0c.54-.014-.063.515 0 0zm-18.85.1c1.605.134-1.379 1.647 0 0zM45 42.15c1.098-.164-.315 1.865 0 0zm-.875.025c.088.025.504 1.551-.325.6.025.317-1.2.907-1.325-.35l.475-.125.475-.1c-.795 1.05.372-.589.775.6-.104-.472-.104-.633-.075-.625zm-10.95.025c.515-.063-.014.54 0 0zm27.675 0c.744 1.639-.766 1.046 0 0zm-8.075.05c.58.196-.407.477 0 0zm3.5 0c.473-.083-.083.473 0 0zm-16.15.075c.366.01.06.861-.15.775-.054.425-1.275.84-1.45-.425.751-.04 1.169.063 1.35.2a2.047 2.047 0 0 1-.05-.45.557.557 0 0 1 .3-.1zm-.25.55c.028.13.054.206.1.225.01-.082-.007-.154-.1-.225zm-5.7-.425c1.247 1.417-1.314.975 0 0zm14.1.1c.055 1.042-1.406.036 0 0zm4.375.225c.944.936-1.336 1.675-.425.525zm-10.8.05c.226.021-.128.444-.15.025a.498.498 0 0 1 .15-.025zm-24 .25c.41.01-.094 1.112-.45.2.204-.153.355-.202.45-.2zm24.175 0c1.146-.092-1.06 1.687 0 0zm-4.8.125c.393.367-.64.268 0 0zm11.95.5c.274.016-.209.443-.175.025a.669.669 0 0 1 .175-.025zm8.425.05c2.353.444 1.49 2.078-.4.725-1.187-.584 1.46.194.4-.725zm-6.375.15c.228.065-.178.555-.15.025.061-.011.117-.034.15-.025zm-1.55.125c.382.045-.333.69-.25.025a.83.83 0 0 1 .25-.025zm-4.6.05c.398.058.072 1.173-.225.05a.398.398 0 0 1 .225-.05zm-6.425.05c.542.048-.391.588 0 0zm16.55.025c.615.764.277 1.02 0 0zm1.125.05c.215.018-.139.442-.125.025a.366.366 0 0 1 .125-.025zm-37.65.025c.473-.083-.083.473 0 0zm41.8.175c.257.009-.05.468-.15.025a.423.423 0 0 1 .15-.025zm-10.425.05c2.263-.146-.325 1.662 0 0zm-1.525.05c.213.084.171.196.075.25.148 1.014.07 1.194.025.575-.103.325-2.022 1.103-1.175-.325.013.603.718-.27.5.25.498-.084.678-.043.675.05-.01-.15-.023-.305-.025-.55-.16.09-.479.06-.075-.25zm-9.175.125c.212.032-.175.584-.125.025.058-.021.095-.03.125-.025zm15.8.175c.473-.083-.083.473 0 0zm1.875.05c.44-.14-.037 1.016-.25.15a.849.849 0 0 1 .25-.15zM32.6 44.9c.463.145-.271.39 0 0zm23.85.025l.2.4c.523.26.729.404.775.45-.142 0-1.014-.282-1.4-.25zm-4.225.05c1.202.227-.402.52 0 0zm7.475.325c.755-.094-.07.63 0 0zm-39.575.125c1.42.063 1.122 1.931 0 0zm30.575.05c.374-.07.124.475-.575.325.276-.208.45-.302.575-.325zm-12.2.05c.564-.047-.073.7 0 0zm5.825.025c.425-.058.263.401-.625.275.262-.174.483-.256.625-.275zm10.475.025c.364.04.587 1.194-.275.2.085-.147.191-.21.275-.2zm3.6 0c.169.017.108.094-.675.2.107-.173.506-.217.675-.2zm1.5.125c.56.115-.095.574 0 0zm1.675.1c.251.027-.137.49-.15.025a.462.462 0 0 1 .15-.025zm-13.125.15c.593-.036-2.04 2.116-.475.175.238-.112.39-.17.475-.175zm-33.1.05c.418.33-.394.359 0 0zm33.625 0c.797.402-1.724 1.231 0 0zm-30.675.275c.331-.102.897.55-.125.1a.234.234 0 0 1 .125-.1zm9.275 0c.419-.023-.456 1.078-.275.075a.687.687 0 0 1 .275-.075zm33.975.025c.407-.007.16.643-.2.05a.579.579 0 0 1 .2-.05zm-14.775.075c.323.014.468 1.47-.35.6.119-.458.242-.605.35-.6zm8.875 0c.583.05-.041.59 0 0zm2.15.075c.48.015-.136.471 0 0zm-43 .1c.012.019-.221.186-.725.425.455-.313.713-.444.725-.425zm34.775.05c.09-.042.208.096.2.65-.45-.008-.349-.58-.2-.65zm4.9.025c.255.462-.719.112 0 0zm-26.825.25c.227.022-.109.437-.125.025.058-.016.093-.028.125-.025zm16.125.075l.475.25.075.025c-.747.037.39 1.066.2 1.1-.646 1.249-.476-.33-.75-1.375zm12.525.075c.568-.012-.124.71 0 0zm-9.975.1c.746.08.165 1.067-.425.025.164-.035.318-.036.425-.025zm-18.65.05c.652-.038-.184.485 0 0zm3.775.175c.223.005.281.777-.25.325.102-.242.176-.327.25-.325zm24.65.125c.388.289-.387.297 0 0zm-20.075.05c.444.09-.495 1.298-.275.05.128-.043.212-.063.275-.05zm-13.075.225c.559.072-.256.37 0 0zm23.325 0c.155-.077.168.306-.35.725.114-.462.257-.679.35-.725zm9.925 0c1.073-.058.1 1.415 0 0zm-17.3.1l.075.425c.553.323-.417 1.195-.075-.425zm-23.825.225c.529-.04-.223.65 0 0zm11.25 0c.319.046.212.614-.9.7.353-.568.709-.728.9-.7zm7.225.05c2.733.679 2.284 1.1.775 2 1.177-1.06-1.02-1.412-.775-2zm23.025.325c.366.377-.61.377 0 0zm-11.1.05c.347-.076.799.12-.25.175.034-.104.134-.15.25-.175zm-29.8.025c.241.069-.22.92-.5.275.273-.236.42-.298.5-.275zm25.45.025c.224.013-.114.452-.15.025a.455.455 0 0 1 .15-.025zM38 48.6c.348.312-.394.272 0 0zm2.525.125c.164.001.106.07-.675.2.124-.135.51-.201.675-.2zm-4.725.125c1.026.038-.382.751.175 1.2-1.655-.258.272.024-.175-1.2zm3.5.2c.153.054-.218 1.566-.35.575.199-.455.299-.593.35-.575zm1.125.25c1.135.482.522.948 0 0zm-.625.075c.37.28-.367.301 0 0zm-14.975.2c.32.066-.176.654-.625.175.32-.149.518-.197.625-.175zm15.025.05c.672-.003-.625.885-.4.05.188-.045.304-.05.4-.05zm1.25.275c.227.022-.109.437-.125.025.058-.016.093-.028.125-.025zm-3.85.075c.512.073-.299.665 0 0zm.3.15c.478.025-.134.462 0 0zm1.975 0c.47.019-.128.467 0 0zm-3.625.025c1.593.277-.607.995 0 0zm-19.475.05c.531.015-.14.52 0 0zm24.8.15c.382.175-.36.396 0 0zm-17.425.125c.546.04-.374.593 0 0zm-4.15.025c.282.012.539.805-.25.325.063-.245.156-.329.25-.325zm.625 0c.658-.13.298 1.34-.35.175.137-.096.256-.156.35-.175zm2.05.025l.25.425c-.395.085-.802.117-.25-.425zm-.425.025c.408-.033.11.41-.65.225.303-.161.514-.214.65-.225zm1.55.125c.226.021-.103.444-.125.025.058-.017.093-.028.125-.025zm17.525.175c1.162.022-.682 1.142 0 0zm-4.2.15c.47.019-.128.467 0 0zm-16.1.3c.709.002-.41 1.098-.425.075a1.57 1.57 0 0 1 .425-.075zm-1.725.075c.588.806-.444 1.253 0 0zm23.325.2c.248-.023-.16.427-.15.05.065-.026.115-.047.15-.05zm-22.55.075c.37.28-.367.301 0 0zm.375 0c.405.405-.645.377 0 0zm21.025.025c.765-.05.868.603-.375.075a1.71 1.71 0 0 1 .375-.075zm-17.9.275c.515-.063-.014.54 0 0zm.225.375c.527.14-.155.768 0 0zm8.575 0c.862 0 .201 1.31 0 0zm.9.125c.687-.018-.428 1.674-.175.025a.732.732 0 0 1 .175-.025zm-1.075.15c.47.019-.128.467 0 0zm10.4.1c.261-.055.459.174.6.4-.775 1.111-.069-.75-1.35.525.263-.62.53-.88.75-.925zm-1.625.1c.755.424-.774.757 0 0zm-10.025.075c1.286.358-.553.795 0 0zm14.9.1c.32-.011.233 1.073-.45.475.19-.352.343-.471.45-.475zm-5.35.25c.944.4-1.405.954-.125.025zm.675.125c1.831-.03-.779.897 0 0zm4.1.175c.545.344-.389.347 0 0zm.4.2c.631-.114-.009.51 0 0zm-12.325.1c.413.052 1.335 1.786.625.375 1.267.767-.29.73-.8.225-.03-.361.017-.528.1-.575.022-.013.047-.028.075-.025zm2.825.075c.473-.083-.083.473 0 0zm9.35.275c.227.022-.109.437-.125.025.058-.016.093-.028.125-.025zm-23.925.275c.387-.053.633 1.18-.275.3.092-.188.186-.288.275-.3zm8.625.1c.596.178-.378.443 0 0zM44.85 55c.253-.038.002.253-.95.5.458-.333.798-.477.95-.5zm-11.75.05l.35.075c2.128 1.702-1.823.894-.35-.075zm-4.5.225c1.22.801.252 1.101 0 0zm7.725.05c.124 1.35.068.644-.55.275zm7.6.1c.013.033-.222.166-.725.325.45-.292.712-.358.725-.325zm-8.625.1c.509.077 1.92 2.365.425 1.225-2.263.487-.464-.003-.425-1.225zm-6.95.275c.531.015-.14.52 0 0zm1.125.05c.268-.026-.17.452-.15.025.071-.03.112-.021.15-.025zm2.825.175l.15.575c2.521.803-.947 1.024-.15-.575zm5.95.05c.226.021-.128.444-.15.025a.498.498 0 0 1 .15-.025zm.725.15c.338-.148.674 1.7.075.25-.516 2.065-1.373-.606-.3.225.07-.314.147-.44.225-.475zm3.575.25c.53.015-.14.52 0 0zm-12.75.175c.26-.076.343.221-.5.6.128-.37.344-.554.5-.6zm11.025.35c.251.027-.137.49-.15.025a.462.462 0 0 1 .15-.025zm-.3.575c.251.027-.137.49-.15.025a.462.462 0 0 1 .15-.025zm-4.8.075c.251.027-.137.49-.15.025a.462.462 0 0 1 .15-.025zm3.325.3c.427-.084.6.379-.475.3a.817.817 0 0 1 .475-.3zm-1.05.075c.463 1.078.133.735-.125.9l.05-.45zM36.1 59c.473-.083-.083.473 0 0zm-.475.075c.442.074-.295.366 0 0zm1.925.325c.578-.127-.112.62 0 0zm-.675.275c.274.046-.251.523-.175.025.076-.014.136-.032.175-.025zm-.275.25c.288-.017-.187.508-.175.025.076-.03.134-.023.175-.025zm-3.5.025c.423-.024-.18 1.038-.25.1.107-.056.19-.097.25-.1zm3.225.2c.427-.054-.186.813-.25.075a.74.74 0 0 1 .25-.075zm-.5.375c.553.155-.534.615 0 0zm.675.125c.47.019-.128.467 0 0zm-1.05 1.175c.577-.02-.241.51 0 0zm.25.275c1.525.21.668.497-.075.4zm1.175 0c.515-.063-.014.54 0 0zm-.425.625c.01.036-.214.15-.7.25.445-.243.69-.286.7-.25zm-1.7 6.975c.227.022-.109.437-.125.025.058-.016.093-.028.125-.025zm.3.35c.251.027-.137.49-.15.025a.462.462 0 0 1 .15-.025zm-.125 2.525c.886.384.686 1.144 0 0zm.8.225c.494-.09-.174.59 0 0z" stroke="url(#SvgjsLinearGradientZZMriRCo7)" stroke-width=".009"></path></g><g id="SvgjsG59863" class="text" transform="translate(294.6850925843952, 59.72449625056991) scale(1)" light-content="false" fill="#128343"><path d="M-177.04 -5.91L-177.6 0L-162.86 0L-162.24 -5.91L-166.65 -5.91L-163.98 -11.44L-149.36 -11.44L-147.99 -5.91L-151.91 -5.91L-152.53 0L-137.67 0L-137.05 -5.91L-140.78 -5.91L-151.29 -40.43L-163.73 -40.43L-164.35 -34.52L-158.63 -34.52L-173.43 -5.91ZM-154.65 -30.54L-154.27 -30.54L-150.67 -16.48L-161.49 -16.48Z M-128.53 -5.91L-129.15 0L-113.41 0L-112.79 -5.91L-117.39 -5.91L-116.34 -15.98L-109.87 -15.98L-103.59 0L-94.44 0L-93.82 -5.91L-98.61 -5.91L-103.52 -17.73C-100.62 -18.64 -98.35 -20.06 -96.71 -21.99C-95.08 -23.91 -94.26 -26.45 -94.26 -29.6C-94.26 -33 -95.4 -35.66 -97.68 -37.57C-99.96 -39.47 -103.32 -40.43 -107.75 -40.43L-124.92 -40.43L-125.54 -34.52L-121.06 -34.52L-124.05 -5.91ZM-110.68 -21.52L-115.78 -21.52L-114.41 -34.52L-109.49 -34.52C-106.55 -34.52 -104.47 -34.1 -103.24 -33.27C-102.02 -32.44 -101.41 -31.01 -101.41 -28.98C-101.41 -26.79 -102.08 -24.99 -103.43 -23.6C-104.78 -22.21 -107.19 -21.52 -110.68 -21.52Z M-61.54 -40.43L-80.88 -40.43L-81.51 -34.52L-77.03 -34.52L-80.01 -5.91L-84.49 -5.91L-85.11 0L-65.4 0C-60.63 0 -57.05 -1.31 -54.67 -3.92C-52.29 -6.53 -51.09 -9.54 -51.09 -12.94C-51.09 -15.34 -51.7 -17.36 -52.93 -19C-54.15 -20.64 -56.01 -21.66 -58.49 -22.08L-58.43 -22.33C-56.03 -22.74 -54.12 -23.84 -52.71 -25.62C-51.3 -27.41 -50.6 -29.46 -50.6 -31.78C-50.6 -34.44 -51.55 -36.54 -53.46 -38.09C-55.36 -39.65 -58.06 -40.43 -61.54 -40.43ZM-65.27 -23.45L-71.56 -23.45L-70.37 -34.52L-63.72 -34.52C-61.98 -34.52 -60.57 -34.18 -59.49 -33.49C-58.41 -32.81 -57.87 -31.55 -57.87 -29.73C-57.87 -27.99 -58.47 -26.51 -59.68 -25.28C-60.88 -24.06 -62.74 -23.45 -65.27 -23.45ZM-66.39 -5.91L-73.36 -5.91L-72.11 -18.04L-64.28 -18.04C-60.21 -18.04 -58.18 -16.25 -58.18 -12.69C-58.18 -8.17 -60.92 -5.91 -66.39 -5.91Z M-18.44 -41.05C-22.59 -41.05 -26.33 -40.01 -29.67 -37.94C-33 -35.87 -35.64 -33.09 -37.57 -29.6C-39.49 -26.12 -40.46 -22.27 -40.46 -18.04C-40.46 -12.94 -38.93 -8.55 -35.89 -4.88C-32.84 -1.21 -28.47 0.62 -22.79 0.62C-18.48 0.62 -14.66 -0.44 -11.32 -2.55C-7.98 -4.66 -5.36 -7.46 -3.45 -10.95C-1.54 -14.43 -0.59 -18.24 -0.59 -22.39C-0.59 -27.53 -2.18 -31.93 -5.35 -35.58C-8.52 -39.22 -12.88 -41.05 -18.44 -41.05ZM-21.8 -5.47C-25.86 -5.47 -28.79 -6.82 -30.57 -9.52C-32.35 -12.21 -33.24 -15.26 -33.24 -18.66C-33.24 -23.09 -31.98 -26.92 -29.45 -30.13C-26.92 -33.35 -23.5 -34.95 -19.19 -34.95C-15.62 -34.95 -12.83 -33.78 -10.82 -31.44C-8.81 -29.1 -7.81 -25.91 -7.81 -21.89C-7.81 -17.62 -9 -13.82 -11.38 -10.48C-13.77 -7.14 -17.24 -5.47 -21.8 -5.47Z M9.92 -17.29L9.36 -11.69L23.79 -11.69L24.35 -17.29Z M33.49 -5.91L32.87 0L47.61 0L48.23 -5.91L44.13 -5.91L46.24 -25.75L46.49 -25.75L56.01 -2.86L58.99 -2.86L72.67 -25.25L72.92 -25.25L70.87 -5.91L67.01 -5.91L66.39 0L81.38 0L82 -5.91L77.53 -5.91L80.51 -34.52L85.42 -34.52L86.05 -40.43L75.41 -40.43L58.87 -12.94L58.62 -12.94L47.11 -40.43L36.6 -40.43L35.98 -34.52L40.89 -34.52L37.91 -5.91Z M91.33 -5.91L90.77 0L105.51 0L106.14 -5.91L101.72 -5.91L104.39 -11.44L119.01 -11.44L120.38 -5.91L116.46 -5.91L115.84 0L130.7 0L131.32 -5.91L127.59 -5.91L117.08 -40.43L104.64 -40.43L104.02 -34.52L109.74 -34.52L94.94 -5.91ZM113.72 -30.54L114.1 -30.54L117.7 -16.48L106.88 -16.48Z M139.84 -5.91L139.22 0L154.96 0L155.58 -5.91L150.98 -5.91L152.04 -15.98L158.5 -15.98L164.78 0L173.93 0L174.55 -5.91L169.76 -5.91L164.85 -17.73C167.75 -18.64 170.02 -20.06 171.66 -21.99C173.3 -23.91 174.11 -26.45 174.11 -29.6C174.11 -33 172.97 -35.66 170.69 -37.57C168.41 -39.47 165.05 -40.43 160.62 -40.43L143.45 -40.43L142.83 -34.52L147.31 -34.52L144.32 -5.91ZM157.69 -21.52L152.59 -21.52L153.96 -34.52L158.88 -34.52C161.82 -34.52 163.9 -34.1 165.13 -33.27C166.35 -32.44 166.96 -31.01 166.96 -28.98C166.96 -26.79 166.29 -24.99 164.94 -23.6C163.59 -22.21 161.18 -21.52 157.69 -21.52Z"></path></g><g id="SvgjsG59864" class="text" transform="translate(293.70998727689266, 104.02444706844854) scale(1 1)" light-content="false" fill="#080808"><path d="M-130.65 -9.93L-130.65 -11.1L-135.55 -11.1L-135.55 -9.93L-133.37 -9.93L-135.73 -2.18L-135.85 -2.18L-139.43 -11.1L-140.4 -11.1L-143.87 -2.2L-143.98 -2.2L-146.55 -9.93L-144.27 -9.93L-144.27 -11.1L-149.33 -11.1L-149.33 -9.93L-148.05 -9.93L-144.58 0L-143.55 0L-140.02 -8.95L-139.93 -8.95L-136.4 0L-135.33 0L-132 -9.93Z M-117.97 -9.93L-117.97 -11.1L-122.82 -11.1L-122.82 -9.93L-120.8 -9.93L-123.85 -1.85L-124 -1.85L-127.35 -9.93L-125.17 -9.93L-125.17 -11.1L-130.18 -11.1L-130.18 -9.93L-128.8 -9.93L-124.72 -0.08L-126.32 4.18L-128.47 4.18L-128.47 5.33L-122.97 5.33L-122.97 4.18L-125 4.18L-123.37 0L-119.37 -9.93Z M-107.58 -3.62L-108.75 -3.9C-109.13 -1.95 -110.21 -0.98 -111.97 -0.98C-113.14 -0.98 -114.03 -1.37 -114.65 -2.16C-115.27 -2.95 -115.58 -4.06 -115.58 -5.47C-115.58 -6.68 -115.31 -7.75 -114.79 -8.69C-114.26 -9.63 -113.34 -10.1 -112.02 -10.1C-111.01 -10.1 -110.16 -9.86 -109.47 -9.37L-109.05 -7.5L-107.9 -7.65L-108.3 -10.12C-109.27 -10.92 -110.51 -11.32 -112.02 -11.32C-113.19 -11.32 -114.15 -11.03 -114.89 -10.44C-115.63 -9.85 -116.18 -9.09 -116.52 -8.18C-116.88 -7.26 -117.05 -6.32 -117.05 -5.37C-117.05 -3.62 -116.61 -2.25 -115.72 -1.25C-114.84 -0.25 -113.64 0.25 -112.13 0.25C-110.68 0.25 -109.6 -0.15 -108.89 -0.96C-108.18 -1.77 -107.74 -2.66 -107.58 -3.62Z M-103.87 -14.2L-102.32 -14.2L-102.32 -16.17L-103.87 -16.17ZM-100.27 0L-100.27 -1.15L-102.32 -1.15L-102.32 -11.1L-105.8 -11.1L-105.8 -9.93L-103.7 -9.93L-103.7 -1.15L-105.77 -1.15L-105.77 0Z M-85.75 0L-85.75 -1.15L-87.8 -1.15L-87.8 -7C-87.8 -8.52 -88.16 -9.62 -88.87 -10.3C-89.59 -10.98 -90.5 -11.32 -91.6 -11.32C-93.42 -11.32 -94.73 -10.57 -95.55 -9.05L-95.55 -11.1L-99.02 -11.1L-99.02 -9.93L-96.93 -9.93L-96.93 -1.15L-99 -1.15L-99 0L-93.5 0L-93.5 -1.15L-95.55 -1.15L-95.55 -6.68C-95.52 -7.54 -95.18 -8.33 -94.52 -9.04C-93.87 -9.75 -93.01 -10.1 -91.93 -10.1C-91.14 -10.1 -90.49 -9.85 -89.96 -9.34C-89.44 -8.83 -89.18 -7.94 -89.18 -6.68L-89.18 -1.15L-91.22 -1.15L-91.22 0Z M-73.03 0L-73.03 -1.15L-74.75 -1.15L-78.57 -6.02L-75.43 -9.93L-73.63 -9.93L-73.63 -11.1L-78.7 -11.1L-78.7 -9.93L-76.88 -9.93L-79.65 -6.45L-81.7 -6.45L-81.7 -17.2L-85.15 -17.2L-85.15 -16.05L-83.07 -16.05L-83.07 -1.15L-85.13 -1.15L-85.13 0L-79.93 0L-79.93 -1.15L-81.7 -1.15L-81.7 -5.35L-79.63 -5.35L-76.3 -1.15L-78.15 -1.15L-78.15 0Z M-70.65 -10.23L-71.05 -7.75L-69.9 -7.6L-69.45 -9.6C-68.78 -9.93 -68.03 -10.1 -67.2 -10.1C-66.18 -10.1 -65.48 -9.85 -65.09 -9.36C-64.7 -8.87 -64.5 -8.2 -64.5 -7.35L-64.5 -6.18C-64.8 -6.19 -65.12 -6.21 -65.46 -6.24C-65.8 -6.26 -66.15 -6.27 -66.5 -6.27C-67.73 -6.27 -68.91 -6.05 -70.03 -5.61C-71.14 -5.17 -71.7 -4.25 -71.7 -2.85C-71.7 -1.67 -71.32 -0.85 -70.56 -0.41C-69.8 0.03 -69.06 0.25 -68.32 0.25C-67.44 0.25 -66.67 0.02 -66.01 -0.45C-65.35 -0.92 -64.85 -1.45 -64.5 -2.05L-64.5 -2C-64.5 -0.5 -63.87 0.25 -62.6 0.25C-62.1 0.25 -61.67 0.13 -61.3 -0.1L-61.32 -1.1C-61.54 -0.98 -61.82 -0.92 -62.15 -0.92C-62.8 -0.92 -63.12 -1.35 -63.12 -2.2L-63.12 -7.6C-63.12 -10.08 -64.41 -11.32 -66.97 -11.32C-67.64 -11.32 -68.3 -11.24 -68.96 -11.06C-69.62 -10.89 -70.18 -10.61 -70.65 -10.23ZM-64.5 -4.07C-64.55 -3.16 -64.93 -2.41 -65.65 -1.84C-66.37 -1.26 -67.14 -0.98 -67.97 -0.98C-68.46 -0.98 -68.96 -1.11 -69.47 -1.39C-69.99 -1.66 -70.25 -2.2 -70.25 -3C-70.25 -3.93 -69.88 -4.54 -69.14 -4.81C-68.4 -5.09 -67.57 -5.22 -66.67 -5.22C-66.28 -5.22 -65.89 -5.21 -65.53 -5.19C-65.16 -5.16 -64.82 -5.13 -64.5 -5.1Z M-52.15 -14.2L-50.6 -14.2L-50.6 -16.17L-52.15 -16.17ZM-48.55 0L-48.55 -1.15L-50.6 -1.15L-50.6 -11.1L-54.07 -11.1L-54.07 -9.93L-51.98 -9.93L-51.98 -1.15L-54.05 -1.15L-54.05 0Z M-29.52 -5.87C-29.52 -7.59 -29.97 -8.93 -30.85 -9.89C-31.73 -10.85 -32.89 -11.32 -34.32 -11.32C-35.36 -11.32 -36.19 -11.06 -36.82 -10.54C-37.46 -10.01 -37.95 -9.41 -38.3 -8.72L-38.3 -11.1L-41.77 -11.1L-41.77 -9.93L-39.67 -9.93L-39.67 4.18L-41.75 4.18L-41.75 5.33L-35.57 5.33L-35.57 4.18L-38.3 4.18L-38.3 -1.67C-37.92 -1.04 -37.39 -0.56 -36.72 -0.24C-36.06 0.09 -35.34 0.25 -34.57 0.25C-33.34 0.25 -32.36 -0.06 -31.62 -0.67C-30.89 -1.29 -30.36 -2.07 -30.02 -3.01C-29.69 -3.95 -29.52 -4.91 -29.52 -5.87ZM-30.97 -5.75C-30.97 -4.55 -31.27 -3.45 -31.85 -2.46C-32.43 -1.47 -33.42 -0.98 -34.8 -0.98C-35.77 -0.98 -36.59 -1.3 -37.27 -1.96C-37.96 -2.62 -38.3 -3.42 -38.3 -4.35L-38.3 -6.32C-38.27 -7.14 -37.9 -7.97 -37.19 -8.83C-36.48 -9.68 -35.61 -10.1 -34.57 -10.1C-33.54 -10.1 -32.68 -9.73 -32 -8.99C-31.32 -8.25 -30.97 -7.17 -30.97 -5.75Z M-25.72 -14.2L-24.17 -14.2L-24.17 -16.17L-25.72 -16.17ZM-22.12 0L-22.12 -1.15L-24.17 -1.15L-24.17 -11.1L-27.65 -11.1L-27.65 -9.93L-25.55 -9.93L-25.55 -1.15L-27.62 -1.15L-27.62 0Z M-10.92 -3.1L-12.07 -3.37C-12.49 -1.77 -13.57 -0.98 -15.32 -0.98C-16.51 -0.98 -17.42 -1.35 -18.08 -2.09C-18.73 -2.83 -19.07 -3.87 -19.1 -5.2L-11.15 -5.2C-11.07 -5.67 -11.03 -6.08 -11.03 -6.45C-11.03 -7.72 -11.4 -8.85 -12.16 -9.84C-12.92 -10.83 -14.06 -11.32 -15.57 -11.32C-17.09 -11.32 -18.3 -10.77 -19.2 -9.66C-20.1 -8.55 -20.55 -7.13 -20.55 -5.4C-20.55 -3.63 -20.08 -2.25 -19.15 -1.25C-18.22 -0.25 -16.98 0.25 -15.42 0.25C-14.12 0.25 -13.09 -0.08 -12.32 -0.73C-11.56 -1.37 -11.09 -2.17 -10.92 -3.1ZM-12.48 -6.35L-19.08 -6.35C-18.96 -7.35 -18.64 -8.22 -18.11 -8.97C-17.59 -9.73 -16.77 -10.1 -15.65 -10.1C-14.48 -10.1 -13.64 -9.7 -13.12 -8.89C-12.61 -8.08 -12.39 -7.23 -12.48 -6.35Z M-3.92 0L-3.92 -1.15L-5.97 -1.15L-5.97 -17.2L-9.43 -17.2L-9.43 -16.05L-7.35 -16.05L-7.35 -1.15L-9.4 -1.15L-9.4 0Z M7.28 -3.1L6.13 -3.37C5.71 -1.77 4.63 -0.98 2.88 -0.98C1.69 -0.98 0.77 -1.35 0.13 -2.09C-0.53 -2.83 -0.87 -3.87 -0.9 -5.2L7.05 -5.2C7.13 -5.67 7.18 -6.08 7.18 -6.45C7.18 -7.72 6.8 -8.85 6.04 -9.84C5.28 -10.83 4.14 -11.32 2.63 -11.32C1.11 -11.32 -0.1 -10.77 -1 -9.66C-1.9 -8.55 -2.35 -7.13 -2.35 -5.4C-2.35 -3.63 -1.88 -2.25 -0.95 -1.25C-0.02 -0.25 1.22 0.25 2.78 0.25C2.36 0.57 2.02 0.95 1.75 1.41C1.48 1.87 1.35 2.38 1.35 2.95C1.35 3.65 1.58 4.2 2.03 4.61C2.48 5.02 3.09 5.23 3.88 5.23C4.53 5.23 5.16 5.06 5.78 4.73L5.55 3.73C5.13 3.99 4.67 4.13 4.15 4.13C3.12 4.13 2.6 3.63 2.6 2.65C2.6 2.2 2.72 1.75 2.95 1.31C3.18 0.87 3.6 0.46 4.2 0.08C5.07 -0.14 5.76 -0.54 6.29 -1.11C6.81 -1.69 7.14 -2.35 7.28 -3.1ZM5.73 -6.35L-0.87 -6.35C-0.76 -7.35 -0.44 -8.22 0.09 -8.97C0.61 -9.73 1.43 -10.1 2.55 -10.1C3.72 -10.1 4.56 -9.7 5.08 -8.89C5.59 -8.08 5.81 -7.23 5.73 -6.35Z M21.38 -9.93L21.38 -11.1L18.13 -11.1L18.13 -9.33C17.76 -9.99 17.23 -10.49 16.55 -10.82C15.87 -11.16 15.12 -11.32 14.3 -11.32C13.12 -11.32 12.16 -11.02 11.44 -10.4C10.71 -9.78 10.18 -9 9.85 -8.06C9.52 -7.12 9.35 -6.18 9.35 -5.22C9.35 -3.49 9.8 -2.16 10.71 -1.23C11.62 -0.29 12.74 0.18 14.08 0.18C15.14 0.18 16 -0.08 16.64 -0.58C17.28 -1.07 17.77 -1.66 18.13 -2.33L18.13 -0.12C18.13 1.33 17.77 2.43 17.06 3.2C16.35 3.97 15.44 4.35 14.33 4.35C13.56 4.35 12.8 4.16 12.06 3.78C11.32 3.39 10.82 2.74 10.55 1.83L9.45 2.33C9.7 3.39 10.27 4.2 11.15 4.75C12.03 5.3 13.06 5.58 14.23 5.58C15.86 5.58 17.15 5.07 18.09 4.06C19.03 3.05 19.5 1.68 19.5 -0.05L19.5 -9.93ZM18.13 -4.55C18.09 -3.72 17.72 -2.92 17.01 -2.16C16.3 -1.4 15.4 -1.03 14.3 -1.03C13.32 -1.03 12.48 -1.39 11.8 -2.11C11.12 -2.84 10.77 -3.92 10.77 -5.35C10.77 -6.52 11.07 -7.6 11.65 -8.6C12.23 -9.6 13.23 -10.1 14.63 -10.1C15.58 -10.1 16.4 -9.8 17.09 -9.21C17.78 -8.62 18.13 -7.86 18.13 -6.93Z M35.85 0L35.85 -1.15L33.8 -1.15L33.8 -7C33.8 -8.52 33.44 -9.62 32.73 -10.3C32.01 -10.98 31.1 -11.32 30 -11.32C28.18 -11.32 26.87 -10.57 26.05 -9.05L26.05 -11.1L22.58 -11.1L22.58 -9.93L24.68 -9.93L24.68 -1.15L22.6 -1.15L22.6 0L28.1 0L28.1 -1.15L26.05 -1.15L26.05 -6.68C26.08 -7.54 26.43 -8.33 27.08 -9.04C27.73 -9.75 28.59 -10.1 29.68 -10.1C30.46 -10.1 31.11 -9.85 31.64 -9.34C32.16 -8.83 32.43 -7.94 32.43 -6.68L32.43 -1.15L30.38 -1.15L30.38 0Z M38.18 -10.23L37.78 -7.75L38.93 -7.6L39.38 -9.6C40.04 -9.93 40.79 -10.1 41.63 -10.1C42.64 -10.1 43.35 -9.85 43.74 -9.36C44.13 -8.87 44.33 -8.2 44.33 -7.35L44.33 -6.18C44.03 -6.19 43.7 -6.21 43.36 -6.24C43.02 -6.26 42.68 -6.27 42.33 -6.27C41.09 -6.27 39.92 -6.05 38.8 -5.61C37.68 -5.17 37.13 -4.25 37.13 -2.85C37.13 -1.67 37.5 -0.85 38.26 -0.41C39.02 0.03 39.77 0.25 40.5 0.25C41.38 0.25 42.15 0.02 42.81 -0.45C43.47 -0.92 43.98 -1.45 44.33 -2.05L44.33 -2C44.33 -0.5 44.96 0.25 46.23 0.25C46.73 0.25 47.16 0.13 47.53 -0.1L47.5 -1.1C47.28 -0.98 47.01 -0.92 46.68 -0.92C46.03 -0.92 45.7 -1.35 45.7 -2.2L45.7 -7.6C45.7 -10.08 44.42 -11.32 41.85 -11.32C41.18 -11.32 40.52 -11.24 39.86 -11.06C39.2 -10.89 38.64 -10.61 38.18 -10.23ZM44.33 -4.07C44.28 -3.16 43.89 -2.41 43.18 -1.84C42.46 -1.26 41.68 -0.98 40.85 -0.98C40.37 -0.98 39.87 -1.11 39.35 -1.39C38.83 -1.66 38.58 -2.2 38.58 -3C38.58 -3.93 38.95 -4.54 39.69 -4.81C40.43 -5.09 41.25 -5.22 42.15 -5.22C42.55 -5.22 42.93 -5.21 43.3 -5.19C43.67 -5.16 44.01 -5.13 44.33 -5.1Z M58.5 -3.62L57.33 -3.9C56.94 -1.95 55.87 -0.98 54.1 -0.98C52.93 -0.98 52.04 -1.37 51.43 -2.16C50.81 -2.95 50.5 -4.06 50.5 -5.47C50.5 -6.68 50.76 -7.75 51.29 -8.69C51.81 -9.63 52.73 -10.1 54.05 -10.1C55.07 -10.1 55.92 -9.86 56.6 -9.37L57.03 -7.5L58.18 -7.65L57.78 -10.12C56.81 -10.92 55.57 -11.32 54.05 -11.32C52.88 -11.32 51.93 -11.03 51.19 -10.44C50.45 -9.85 49.9 -9.09 49.55 -8.18C49.2 -7.26 49.03 -6.32 49.03 -5.37C49.03 -3.62 49.47 -2.25 50.35 -1.25C51.23 -0.25 52.43 0.25 53.95 0.25C55.4 0.25 56.48 -0.15 57.19 -0.96C57.9 -1.77 58.33 -2.66 58.5 -3.62Z M62.1 -14.2L63.65 -14.2L63.65 -16.17L62.1 -16.17ZM63.65 0.53L63.65 -11.1L59.6 -11.1L59.6 -9.93L62.28 -9.93L62.28 0.53C62.28 1.73 62.1 2.6 61.75 3.16C61.4 3.72 60.98 4.08 60.49 4.24C60 4.4 59.52 4.48 59.05 4.48L59.1 5.6C60.27 5.68 61.32 5.39 62.25 4.71C63.18 4.04 63.65 2.64 63.65 0.53Z M67.77 -10.23L67.38 -7.75L68.52 -7.6L68.97 -9.6C69.64 -9.93 70.39 -10.1 71.22 -10.1C72.24 -10.1 72.95 -9.85 73.34 -9.36C73.73 -8.87 73.93 -8.2 73.93 -7.35L73.93 -6.18C73.63 -6.19 73.3 -6.21 72.96 -6.24C72.62 -6.26 72.27 -6.27 71.93 -6.27C70.69 -6.27 69.52 -6.05 68.4 -5.61C67.28 -5.17 66.73 -4.25 66.72 -2.85C66.72 -1.67 67.1 -0.85 67.86 -0.41C68.62 0.03 69.37 0.25 70.1 0.25C70.98 0.25 71.75 0.02 72.41 -0.45C73.07 -0.92 73.58 -1.45 73.93 -2.05L73.93 -2C73.93 -0.5 74.56 0.25 75.83 0.25C76.33 0.25 76.76 0.13 77.13 -0.1L77.1 -1.1C76.88 -0.98 76.61 -0.92 76.27 -0.92C75.63 -0.92 75.3 -1.35 75.3 -2.2L75.3 -7.6C75.3 -10.08 74.02 -11.32 71.45 -11.32C70.78 -11.32 70.12 -11.24 69.46 -11.06C68.8 -10.89 68.24 -10.61 67.77 -10.23ZM73.93 -4.07C73.88 -3.16 73.49 -2.41 72.77 -1.84C72.06 -1.26 71.28 -0.98 70.45 -0.98C69.97 -0.98 69.47 -1.11 68.95 -1.39C68.43 -1.66 68.18 -2.2 68.18 -3C68.18 -3.93 68.55 -4.54 69.29 -4.81C70.03 -5.09 70.85 -5.22 71.75 -5.22C72.15 -5.22 72.53 -5.21 72.9 -5.19C73.27 -5.16 73.61 -5.13 73.93 -5.1Z M96.78 0L96.78 -1.15L94.73 -1.15L94.73 -17.2L90.55 -17.2L90.55 -16.05L93.35 -16.05L93.35 -9.27C92.97 -9.94 92.44 -10.45 91.78 -10.8C91.11 -11.15 90.38 -11.32 89.6 -11.32C88.37 -11.32 87.38 -11.02 86.65 -10.4C85.92 -9.78 85.39 -9.01 85.06 -8.08C84.74 -7.14 84.58 -6.19 84.58 -5.22C84.58 -3.51 85.02 -2.17 85.9 -1.2C86.78 -0.23 87.93 0.25 89.35 0.25C90.37 0.25 91.2 -0.01 91.84 -0.52C92.48 -1.04 92.98 -1.63 93.35 -2.3L93.35 0ZM93.35 -4.73C93.32 -3.89 92.95 -3.06 92.24 -2.22C91.53 -1.39 90.66 -0.98 89.63 -0.98C88.59 -0.98 87.73 -1.35 87.05 -2.09C86.37 -2.83 86.03 -3.91 86.03 -5.32C86.03 -6.51 86.32 -7.6 86.9 -8.6C87.48 -9.6 88.46 -10.1 89.83 -10.1C90.76 -10.1 91.57 -9.8 92.26 -9.19C92.95 -8.58 93.32 -7.82 93.35 -6.9Z M104.03 -11.3C103.43 -11.3 102.87 -11.09 102.35 -10.67C101.83 -10.26 101.47 -9.74 101.25 -9.12L101.25 -11.1L97.85 -11.1L97.85 -9.93L99.95 -9.93L99.95 -1.15L97.88 -1.15L97.88 0L104.05 0L104.05 -1.15L101.33 -1.15L101.33 -6.82C101.33 -7.77 101.56 -8.56 102.03 -9.18C102.49 -9.79 103.09 -10.1 103.83 -10.1C104.14 -10.1 104.43 -10.07 104.68 -10L105.1 -8.1L106.25 -8.25L105.85 -10.73C105.42 -11.11 104.81 -11.3 104.03 -11.3Z M117.7 0L118.25 -3.32L117.15 -3.53L116.55 -1.15L110.28 -1.15L117.53 -10.2L117.5 -11.1L108.8 -11.1L108.53 -7.72L109.68 -7.57L109.95 -9.93L115.73 -9.93L108.45 -0.9L108.48 0Z M129.68 -3.1L128.53 -3.37C128.11 -1.77 127.03 -0.98 125.28 -0.98C124.09 -0.98 123.18 -1.35 122.53 -2.09C121.88 -2.83 121.53 -3.87 121.5 -5.2L129.45 -5.2C129.53 -5.67 129.57 -6.08 129.57 -6.45C129.57 -7.72 129.2 -8.85 128.44 -9.84C127.68 -10.83 126.54 -11.32 125.03 -11.32C123.51 -11.32 122.3 -10.77 121.4 -9.66C120.5 -8.55 120.05 -7.13 120.05 -5.4C120.05 -3.63 120.52 -2.25 121.45 -1.25C122.38 -0.25 123.63 0.25 125.18 0.25C126.48 0.25 127.51 -0.08 128.28 -0.73C129.04 -1.37 129.51 -2.17 129.68 -3.1ZM128.13 -6.35L121.53 -6.35C121.64 -7.35 121.96 -8.22 122.49 -8.97C123.01 -9.73 123.83 -10.1 124.95 -10.1C126.12 -10.1 126.96 -9.7 127.48 -8.89C127.99 -8.08 128.21 -7.23 128.13 -6.35Z M149.33 -9.93L149.33 -11.1L144.43 -11.1L144.43 -9.93L146.6 -9.93L144.25 -2.18L144.13 -2.18L140.55 -11.1L139.58 -11.1L136.1 -2.2L136 -2.2L133.43 -9.93L135.7 -9.93L135.7 -11.1L130.65 -11.1L130.65 -9.93L131.93 -9.93L135.4 0L136.43 0L139.95 -8.95L140.05 -8.95L143.58 0L144.65 0L147.98 -9.93Z"></path></g></g></g></svg>